<svg width="366" height="158" viewBox="0 0 366 158" fill="none" xmlns="http://www.w3.org/2000/svg">
<path d="M15.0703 80.5674C20.1484 83.4971 25.7148 84.9619 31.7695 84.9619C37.8633 84.9619 43.4687 83.4971 48.5859 80.5674C53.3906 77.7939 57.1016 74.0439 59.7188 69.3174C62.375 64.6299 63.7031 59.376 63.7031 53.5557V0.704102H41.6133V53.5557C41.6133 57.2275 40.2656 59.8447 37.5703 61.4072C35.8516 62.3838 33.9375 62.8916 31.8281 62.9307C29.7188 62.9307 27.8242 62.4424 26.1445 61.4658C23.5273 59.9424 22.2188 57.3252 22.2188 53.6143C22.2578 35.4111 22.2578 17.8525 22.2188 0.938477V0.879883H19.9922V0.938477C20.0313 17.8525 20.0313 35.3916 19.9922 53.5557C19.9922 58.165 21.6719 61.4463 25.0313 63.3994C27.0234 64.5322 29.2891 65.0986 31.8281 65.0986C34.3672 65.0986 36.6328 64.5127 38.625 63.3408C42.1016 61.3486 43.8399 58.0869 43.8399 53.5557V2.87209H61.4766V53.5557C61.4766 58.9463 60.2656 63.8291 57.8438 68.2041C55.3828 72.5791 51.9258 76.0557 47.4727 78.6338C42.7071 81.3682 37.4727 82.7354 31.7696 82.7354C26.1055 82.7354 20.9102 81.3877 16.1836 78.6924C11.7696 76.1143 8.37112 72.6377 5.98831 68.2627C3.56644 63.8877 2.3555 58.9854 2.3555 53.5557C2.39456 35.3916 2.39456 17.8721 2.3555 0.997086V0.938492H0.128937V0.997086C0.167997 17.8721 0.167997 35.3916 0.128937 53.5557C0.128937 59.376 1.43753 64.6494 4.05472 69.376C6.67191 74.1025 10.3438 77.833 15.0704 80.5674H15.0703Z" fill="#CCCCCC"/>
<path d="M109.387 81.2705C114.777 83.8877 121.437 85.1963 129.367 85.1963C138.742 85.1963 146.281 82.9111 151.984 78.3408C158.195 73.3408 161.301 66.6807 161.301 58.3604C161.301 47.6963 156.516 40.001 146.945 35.2744C142.727 33.2041 136.965 31.7783 129.66 30.9971L128.84 30.8799C124.504 30.4111 121.516 29.7275 119.875 28.8291C119.367 28.5947 119.074 28.3603 118.996 28.126C118.84 27.8916 118.762 27.3838 118.762 26.6025C118.801 24.9228 120.246 23.751 123.098 23.0869C124.621 22.7354 126.066 22.5791 127.434 22.6182C133.449 22.6572 136.457 24.2588 136.457 27.4229H138.684C138.684 22.7744 134.934 20.4307 127.434 20.3916C125.324 20.3916 123.391 20.6455 121.633 21.1533C118.273 22.169 116.574 23.9658 116.535 26.544C116.496 28.5362 117.258 29.9619 118.82 30.8213C120.734 31.8369 123.996 32.5986 128.605 33.1065L129.426 33.1651C136.496 33.9463 142.004 35.3135 145.949 37.2666C154.738 41.5635 159.133 48.5947 159.133 58.3604C159.133 65.9776 156.281 72.0518 150.578 76.583C145.305 80.8408 138.234 82.9697 129.367 82.9697C121.789 82.9697 115.441 81.7393 110.324 79.2783C101.613 75.0986 97.082 68.126 96.7305 58.3604H114.543C115.09 62.9307 120.031 65.2158 129.367 65.2158C137.336 65.2158 141.32 62.9307 141.32 58.3604C141.32 55.9776 140.246 54.2588 138.098 53.2041C136.027 52.1885 132.512 51.4072 127.551 50.8604L126.672 50.7432C119.758 50.001 114.348 48.5752 110.441 46.4658C102.512 42.208 98.625 35.4697 98.7813 26.251C98.8985 19.2979 101.613 13.6143 106.926 9.20021C112.238 4.82521 119.035 2.63771 127.316 2.63771H127.492C136.164 2.67677 143.156 4.96193 148.469 9.49318C153.781 14.0635 156.438 20.0401 156.438 27.4229H158.664C158.664 19.376 155.793 12.8721 150.051 7.91115C144.348 2.95021 136.828 0.450208 127.492 0.411148H127.316C118.371 0.411148 111.047 2.81349 105.344 7.61818C99.6016 12.4229 96.6719 18.6143 96.5547 26.1924C96.3594 36.3096 100.637 43.7315 109.387 48.458C113.566 50.6846 119.25 52.1885 126.438 52.9698L127.316 53.0869C132.004 53.5948 135.266 54.2979 137.102 55.1963C137.961 55.5869 138.508 55.9776 138.742 56.3682C138.977 56.7979 139.094 57.462 139.094 58.3604C139.094 61.4463 135.852 62.9893 129.367 62.9893C123.898 62.9893 120.207 62.2471 118.293 60.7627C117.238 59.9424 116.711 58.7705 116.711 57.2471V56.1338H94.5039V57.2471C94.5039 62.6768 95.793 67.462 98.3711 71.6026C100.91 75.7432 104.582 78.9659 109.387 81.2706L109.387 81.2705Z" fill="#CCCCCC"/>
<path d="M210.207 81.2705C215.598 83.8877 222.258 85.1963 230.188 85.1963C239.562 85.1963 247.102 82.9111 252.805 78.3408C259.016 73.3408 262.121 66.6807 262.121 58.3604C262.121 47.6963 257.336 40.001 247.766 35.2744C243.547 33.2041 237.785 31.7783 230.48 30.9971L229.66 30.8799C225.324 30.4111 222.336 29.7275 220.695 28.8291C220.188 28.5947 219.895 28.3603 219.816 28.126C219.66 27.8916 219.582 27.3838 219.582 26.6025C219.621 24.9228 221.066 23.751 223.918 23.0869C225.441 22.7354 226.887 22.5791 228.254 22.6182C234.27 22.6572 237.277 24.2588 237.277 27.4229H239.504C239.504 22.7744 235.754 20.4307 228.254 20.3916C226.145 20.3916 224.211 20.6455 222.453 21.1533C219.094 22.169 217.395 23.9658 217.355 26.544C217.316 28.5362 218.078 29.9619 219.641 30.8213C221.555 31.8369 224.816 32.5986 229.426 33.1065L230.246 33.1651C237.316 33.9463 242.824 35.3135 246.77 37.2666C255.559 41.5635 259.953 48.5947 259.953 58.3604C259.953 65.9776 257.102 72.0518 251.398 76.583C246.125 80.8408 239.055 82.9697 230.188 82.9697C222.609 82.9697 216.262 81.7393 211.145 79.2783C202.434 75.0986 197.902 68.126 197.551 58.3604H215.363C215.91 62.9307 220.852 65.2158 230.188 65.2158C238.156 65.2158 242.141 62.9307 242.141 58.3604C242.141 55.9776 241.066 54.2588 238.918 53.2041C236.848 52.1885 233.332 51.4072 228.371 50.8604L227.492 50.7432C220.578 50.001 215.168 48.5752 211.262 46.4658C203.332 42.208 199.445 35.4697 199.602 26.251C199.719 19.2979 202.434 13.6143 207.746 9.20021C213.059 4.82521 219.855 2.63771 228.137 2.63771H228.312C236.984 2.67677 243.977 4.96193 249.289 9.49318C254.602 14.0635 257.258 20.0401 257.258 27.4229H259.484C259.484 19.376 256.613 12.8721 250.871 7.91115C245.168 2.95021 237.648 0.450208 228.312 0.411148H228.137C219.191 0.411148 211.867 2.81349 206.164 7.61818C200.422 12.4229 197.492 18.6143 197.375 26.1924C197.18 36.3096 201.457 43.7315 210.207 48.458C214.387 50.6846 220.07 52.1885 227.258 52.9698L228.137 53.0869C232.824 53.5948 236.086 54.2979 237.922 55.1963C238.781 55.5869 239.328 55.9776 239.563 56.3682C239.797 56.7979 239.914 57.462 239.914 58.3604C239.914 61.4463 236.672 62.9893 230.188 62.9893C224.719 62.9893 221.027 62.2471 219.113 60.7627C218.059 59.9424 217.531 58.7705 217.531 57.2471V56.1338H195.324V57.2471C195.324 62.6768 196.613 67.462 199.191 71.6026C201.73 75.7432 205.402 78.9659 210.207 81.2706L210.207 81.2705Z" fill="#CCCCCC"/>
<path d="M321.809 84.376V82.208H324.211C334.289 82.208 343.078 78.8486 350.578 72.1299C359.328 64.2783 363.703 54.4736 363.703 42.7158C363.703 30.9971 359.328 21.2119 350.578 13.3604C343.078 6.64162 334.289 3.28224 324.211 3.28224H318.527V84.376H296.73V0.879898H298.898V82.208H316.359V1.05569H324.211C334.836 1.05569 344.113 4.61039 352.043 11.7198C361.262 20.001 365.871 30.333 365.871 42.7158C365.871 55.0986 361.262 65.4307 352.043 73.7119C344.113 80.8213 334.836 84.376 324.211 84.376L321.809 84.376Z" fill="#CCCCCC"/>
<path d="M61.726 157.589L75.4178 115.196H82.6772L96.2465 157.589H90.3348L78.9097 120.71L67.4539 157.589H61.726ZM148.177 136.393C148.177 141.579 147.508 145.704 146.171 148.767C144.833 151.83 142.771 154.066 139.983 155.475C137.196 156.884 133.27 157.589 128.206 157.589H117.424V115.196H128.083C133.025 115.196 136.925 115.906 139.784 117.325C142.643 118.744 144.756 120.996 146.125 124.079C147.493 127.163 148.177 131.267 148.177 136.393V136.393ZM142.204 136.331C142.204 132.288 141.755 129.123 140.856 126.836C139.958 124.549 138.477 122.89 136.415 121.858C134.352 120.827 131.473 120.312 127.777 120.312H123.06V152.443H127.777C131.493 152.443 134.368 151.927 136.399 150.896C138.431 149.865 139.907 148.211 140.826 145.934C141.744 143.657 142.204 140.456 142.204 136.331V136.331ZM204.028 157.589V122.456L192.296 146.041H188.774L177.165 122.456V157.589H171.774V115.196H179.432L190.673 138.261L202.006 115.196H209.419V157.589H204.028ZM249.863 157.589H232.526V152.688H238.376V120.005H232.526V115.196H249.863V120.005H244.012V152.688H249.863V157.589ZM297.566 157.589L278.422 121.2V157.589H272.97V115.196H281.271L298.822 148.492V115.196H304.274V157.589H297.566Z" fill="#CCCCCC"/>
</svg>
